<?xml version="1.0" encoding="UTF-8" standalone="no"?><!DOCTYPE svg PUBLIC "-//W3C//DTD SVG 1.1//EN" "http://www.w3.org/Graphics/SVG/1.1/DTD/svg11.dtd"><svg width="100%" height="100%" viewBox="0 0 115 97" version="1.1" xmlns="http://www.w3.org/2000/svg" xmlns:xlink="http://www.w3.org/1999/xlink" xml:space="preserve" xmlns:serif="http://www.serif.com/" style="fill-rule:evenodd;clip-rule:evenodd;stroke-linejoin:round;stroke-miterlimit:1.41421;"><path d="M2.31,2.76l0.53,-0.9l107.92,0l0.53,0.9l-54.49,91.9l-54.49,-91.9Z" style="fill:#fff;fill-rule:nonzero;"/><path d="M88.84,41.27l-32,54l-18.75,-31.52c5.94,0.9 14.39,-1.85 19.59,-3.92c7.518,-2.964 14.668,-6.786 21.31,-11.39c2.36,-1.69 6.34,-4.55 9.85,-7.17Z" style="fill:#009fdb;fill-rule:nonzero;"/><path d="M70.19,5.44c4.4,-1.53 7.83,-0.52 8.59,0.63c0.725,0.961 0.979,2.201 0.69,3.37c-0.596,1.82 -1.625,3.467 -3,4.8c-2.131,2.193 -4.558,4.077 -7.21,5.6c-0.968,0.458 -1.662,1.35 -1.87,2.4c-0.058,0.819 0.245,1.624 0.83,2.2c0.686,0.688 1.593,1.113 2.56,1.2c1.201,0.143 2.416,-0.11 3.46,-0.72c3.769,-1.886 7.312,-4.194 10.56,-6.88c2.22,-1.861 4.178,-4.013 5.82,-6.4c1.137,-1.624 1.974,-3.44 2.47,-5.36c0.276,-1.249 0.31,-2.539 0.1,-3.8l17.57,0l0.53,0.9l-10.19,17.21c-2.14,2 -4.27,3.94 -6.24,5.71c-4.656,4.199 -9.53,8.151 -14.6,11.84c-4.871,3.556 -10.021,6.713 -15.4,9.44c-4.713,2.458 -9.826,4.057 -15.1,4.72c-5.787,0.1 -9.67,-1.1 -11.65,-3.6c-2.013,-2.64 -2.747,-6.045 -2,-9.28c0.877,-4.184 2.625,-8.136 5.13,-11.6c2.752,-4.034 6.077,-7.645 9.87,-10.72c6.06,-4.907 11.093,-8.187 15.1,-9.84c1.267,-0.729 2.6,-1.338 3.98,-1.82Z" style="fill:#1c3770;fill-rule:nonzero;"/><path d="M2.3,3.44l0.54,-0.9l41,0c-9.77,4.31 -21.83,19.21 -25.34,27.4l-16.2,-26.5Z" style="fill:#009fdb;fill-rule:nonzero;"/><path d="M110.1,3.5l-106.6,0l53.3,89.94l53.3,-89.89l0,-0.05Zm-106.6,-3.5l106.6,0c1.915,0.007 3.486,1.585 3.486,3.5c0,0.626 -0.168,1.241 -0.486,1.78l-53.26,89.83c-0.3,0.547 -0.738,1.006 -1.27,1.33c-0.537,0.318 -1.15,0.486 -1.774,0.486c-1.236,0 -2.383,-0.658 -3.006,-1.726l-53.19,-89.76c-0.401,-0.589 -0.61,-1.288 -0.6,-2c0.033,-1.897 1.602,-3.44 3.5,-3.44Z" style="fill:#1c3770;fill-rule:nonzero;"/></svg>